<svg width="16" height="16" viewBox="0 0 16 16" fill="none" xmlns="http://www.w3.org/2000/svg">
  <path opacity="0.5" d="M11.7 5.2L15.8 6L11.2 7.9L15.2 11.5L9.5 10.5L8 16L5.6 11.8L0 14L3.15756 9.44837L4.96199 10.3506L9.01038 7.51237V4.53973L14.5 0.199997L11.7 5.2Z" fill="white"/>
  <path transform="rotate(-34 5 5) translate(-0.3 , 0)" d="M9.13,4.79l-1.88-3.25c-0.08-0.13-0.21-0.21-0.38-0.21h-3.75c-0.17,0-0.29,0.08-0.38,0.21l-1.88,3.25c-0.08,0.13-0.08,0.29,0,0.42l1.88,3.25c0.08,0.13,0.21,0.21,0.38,0.21h3.75c0.17,0,0.29-0.08,0.38-0.21l1.88-3.25C9.17,5.08,9.17,4.92,9.13,4.79z" fill="white"/>
</svg>
